<svg width="34" height="34" viewBox="0 0 34 34" fill="none" xmlns="http://www.w3.org/2000/svg">
<circle opacity="0.5" cx="17" cy="17" r="17" fill="#DEE2E6"/>
<path fill-rule="evenodd" clip-rule="evenodd" d="M18.0742 22.8114H16.0742L16.0509 19.7363C12.6338 19.5709 10 18.5248 10 17.2591C10 16.2618 11.6351 15.4009 14 14.9996V16.5336C13.5165 16.6295 13.0869 16.7461 12.7233 16.8759C12.3379 17.0136 12.0744 17.1491 11.9077 17.2591C12.0744 17.369 12.3379 17.5046 12.7233 17.6422C13.541 17.9342 14.6923 18.1591 16.0396 18.233L16 12.9997H12V11H22V12.9997H18L18.0395 18.2285C19.3528 18.1502 20.4751 17.9285 21.2767 17.6422C21.6621 17.5046 21.9256 17.369 22.0923 17.2591C21.9256 17.1491 21.6621 17.0136 21.2767 16.8759C20.9131 16.7461 20.4835 16.6295 20 16.5336V14.9996C22.3649 15.4009 24 16.2618 24 17.2591C24 18.5122 21.4183 19.55 18.0509 19.7311L18.0742 22.8114ZM22.2906 17.0964C22.2906 17.0964 22.2901 17.0973 22.2886 17.0992L22.2906 17.0964ZM11.7094 17.0964L11.7114 17.0992C11.7099 17.0973 11.7094 17.0964 11.7094 17.0964ZM11.7094 17.4218C11.7094 17.4218 11.7099 17.4208 11.7114 17.419L11.7094 17.4218ZM22.2886 17.419L22.2898 17.4205L22.2906 17.4218L22.2886 17.419Z" fill="#50AF95"/>
</svg>
