<svg width="34" height="34" viewBox="0 0 34 34" fill="none" xmlns="http://www.w3.org/2000/svg">
<circle opacity="0.5" cx="17" cy="17" r="17" fill="#DEE2E6"/>
<path d="M22.7965 15.2939C23.0426 13.6488 21.7901 12.7645 20.0775 12.1746L20.633 9.94615L19.2766 9.6081L18.7357 11.7778C18.3791 11.6889 18.0129 11.6051 17.6489 11.522L18.1937 9.33805L16.838 9L16.2821 11.2276C15.9869 11.1604 15.6971 11.094 15.4159 11.024L15.4174 11.0171L13.5468 10.55L13.1859 11.9988C13.1859 11.9988 14.1923 12.2294 14.1711 12.2437C14.7205 12.3809 14.8198 12.7444 14.8031 13.0326L14.1703 15.5713C14.2082 15.5809 14.2572 15.5948 14.3113 15.6165C14.2661 15.6053 14.2178 15.5929 14.168 15.5809L13.281 19.1372C13.2137 19.3041 13.0434 19.5544 12.6593 19.4594C12.6729 19.4791 11.6734 19.2133 11.6734 19.2133L11 20.766L12.7652 21.2061C13.0936 21.2883 13.4154 21.3745 13.7322 21.4556L13.1709 23.7095L14.5257 24.0476L15.0817 21.8176C15.4518 21.9181 15.8111 22.0108 16.1627 22.0981L15.6087 24.3177L16.9651 24.6557L17.5265 22.406C19.8395 22.8438 21.5788 22.6672 22.3109 20.5752C22.9008 18.8907 22.2815 17.9191 21.0646 17.2855C21.9508 17.0811 22.6184 16.4981 22.7965 15.2939ZM19.6973 19.6398C19.2781 21.3243 16.442 20.4137 15.5225 20.1853L16.2674 17.1993C17.1869 17.4288 20.1354 17.8831 19.6973 19.6398ZM20.1169 15.2695C19.7344 16.8018 17.3738 16.0233 16.6081 15.8324L17.2835 13.1242C18.0492 13.315 20.5152 13.6712 20.1169 15.2695Z" fill="#F7931A"/>
</svg>
