<svg width="807" height="682" viewBox="0 0 807 682" fill="none" xmlns="http://www.w3.org/2000/svg">
<mask id="path-1-inside-1_33_76" fill="white">
<path d="M695.168 516C695.168 545.916 670.916 570.168 641 570.168C611.084 570.168 586.832 545.916 586.832 516C586.832 486.084 611.084 461.832 641 461.832C670.916 461.832 695.168 486.084 695.168 516Z"/>
<path d="M724.524 516C724.524 562.129 687.129 599.524 641 599.524C594.871 599.524 557.476 562.129 557.476 516C557.476 469.871 594.871 432.476 641 432.476C687.129 432.476 724.524 469.871 724.524 516Z"/>
<path d="M753.181 516C753.181 577.956 702.956 628.181 641 628.181C579.044 628.181 528.819 577.956 528.819 516C528.819 454.044 579.044 403.819 641 403.819C702.956 403.819 753.181 454.044 753.181 516Z"/>
<path d="M781.139 516C781.139 593.397 718.397 656.139 641 656.139C563.603 656.139 500.861 593.397 500.861 516C500.861 438.603 563.603 375.861 641 375.861C718.397 375.861 781.139 438.603 781.139 516Z"/>
<path d="M807 516C807 607.679 732.679 682 641 682C549.321 682 475 607.679 475 516C475 424.321 549.321 350 641 350C732.679 350 807 424.321 807 516Z"/>
</mask>
<path d="M694.168 516C694.168 545.364 670.364 569.168 641 569.168V571.168C671.469 571.168 696.168 546.469 696.168 516H694.168ZM641 569.168C611.636 569.168 587.832 545.364 587.832 516H585.832C585.832 546.469 610.531 571.168 641 571.168V569.168ZM587.832 516C587.832 486.636 611.636 462.832 641 462.832V460.832C610.531 460.832 585.832 485.531 585.832 516H587.832ZM641 462.832C670.364 462.832 694.168 486.636 694.168 516H696.168C696.168 485.531 671.469 460.832 641 460.832V462.832ZM723.524 516C723.524 561.577 686.577 598.524 641 598.524V600.524C687.681 600.524 725.524 562.681 725.524 516H723.524ZM641 598.524C595.423 598.524 558.476 561.577 558.476 516H556.476C556.476 562.681 594.319 600.524 641 600.524V598.524ZM558.476 516C558.476 470.423 595.423 433.476 641 433.476V431.476C594.319 431.476 556.476 469.319 556.476 516H558.476ZM641 433.476C686.577 433.476 723.524 470.423 723.524 516H725.524C725.524 469.319 687.681 431.476 641 431.476V433.476ZM752.181 516C752.181 577.404 702.404 627.181 641 627.181V629.181C703.508 629.181 754.181 578.508 754.181 516H752.181ZM641 627.181C579.596 627.181 529.819 577.404 529.819 516H527.819C527.819 578.508 578.492 629.181 641 629.181V627.181ZM529.819 516C529.819 454.596 579.596 404.819 641 404.819V402.819C578.492 402.819 527.819 453.492 527.819 516H529.819ZM641 404.819C702.404 404.819 752.181 454.596 752.181 516H754.181C754.181 453.492 703.508 402.819 641 402.819V404.819ZM780.139 516C780.139 592.844 717.844 655.139 641 655.139V657.139C718.949 657.139 782.139 593.949 782.139 516H780.139ZM641 655.139C564.156 655.139 501.861 592.844 501.861 516H499.861C499.861 593.949 563.051 657.139 641 657.139V655.139ZM501.861 516C501.861 439.156 564.156 376.861 641 376.861V374.861C563.051 374.861 499.861 438.051 499.861 516H501.861ZM641 376.861C717.844 376.861 780.139 439.156 780.139 516H782.139C782.139 438.051 718.949 374.861 641 374.861V376.861ZM806 516C806 607.127 732.127 681 641 681V683C733.232 683 808 608.232 808 516H806ZM641 681C549.873 681 476 607.127 476 516H474C474 608.232 548.768 683 641 683V681ZM476 516C476 424.873 549.873 351 641 351V349C548.768 349 474 423.768 474 516H476ZM641 351C732.127 351 806 424.873 806 516H808C808 423.768 733.232 349 641 349V351Z" fill="#E9ECEF" mask="url(#path-1-inside-1_33_76)"/>
<mask id="path-3-inside-2_33_76" fill="white">
<path d="M315 237.5C315 280.302 280.302 315 237.5 315C194.698 315 160 280.302 160 237.5C160 194.698 194.698 160 237.5 160C280.302 160 315 194.698 315 237.5Z"/>
<path d="M357 237.5C357 303.498 303.498 357 237.5 357C171.502 357 118 303.498 118 237.5C118 171.502 171.502 118 237.5 118C303.498 118 357 171.502 357 237.5Z"/>
<path d="M398 237.5C398 326.142 326.142 398 237.5 398C148.858 398 77 326.142 77 237.5C77 148.858 148.858 77 237.5 77C326.142 77 398 148.858 398 237.5Z"/>
<path d="M438 237.5C438 348.233 348.233 438 237.5 438C126.767 438 37 348.233 37 237.5C37 126.767 126.767 37 237.5 37C348.233 37 438 126.767 438 237.5Z"/>
<path d="M475 237.5C475 368.668 368.668 475 237.5 475C106.332 475 0 368.668 0 237.5C0 106.332 106.332 0 237.5 0C368.668 0 475 106.332 475 237.5Z"/>
</mask>
<path d="M314 237.5C314 279.75 279.75 314 237.5 314V316C280.854 316 316 280.854 316 237.5H314ZM237.5 314C195.25 314 161 279.75 161 237.5H159C159 280.854 194.146 316 237.5 316V314ZM161 237.5C161 195.25 195.25 161 237.5 161V159C194.146 159 159 194.146 159 237.5H161ZM237.5 161C279.75 161 314 195.25 314 237.5H316C316 194.146 280.854 159 237.5 159V161ZM356 237.5C356 302.946 302.946 356 237.5 356V358C304.05 358 358 304.05 358 237.5H356ZM237.5 356C172.054 356 119 302.946 119 237.5H117C117 304.05 170.95 358 237.5 358V356ZM119 237.5C119 172.054 172.054 119 237.5 119V117C170.95 117 117 170.95 117 237.5H119ZM237.5 119C302.946 119 356 172.054 356 237.5H358C358 170.95 304.05 117 237.5 117V119ZM397 237.5C397 325.589 325.589 397 237.5 397V399C326.694 399 399 326.694 399 237.5H397ZM237.5 397C149.411 397 78 325.589 78 237.5H76C76 326.694 148.306 399 237.5 399V397ZM78 237.5C78 149.411 149.411 78 237.5 78V76C148.306 76 76 148.306 76 237.5H78ZM237.5 78C325.589 78 397 149.411 397 237.5H399C399 148.306 326.694 76 237.5 76V78ZM437 237.5C437 347.681 347.681 437 237.5 437V439C348.785 439 439 348.785 439 237.5H437ZM237.5 437C127.319 437 38 347.681 38 237.5H36C36 348.785 126.215 439 237.5 439V437ZM38 237.5C38 127.319 127.319 38 237.5 38V36C126.215 36 36 126.215 36 237.5H38ZM237.5 38C347.681 38 437 127.319 437 237.5H439C439 126.215 348.785 36 237.5 36V38ZM474 237.5C474 368.115 368.115 474 237.5 474V476C369.22 476 476 369.22 476 237.5H474ZM237.5 474C106.885 474 1 368.115 1 237.5H-1C-1 369.22 105.78 476 237.5 476V474ZM1 237.5C1 106.885 106.885 1 237.5 1V-1C105.78 -1 -1 105.78 -1 237.5H1ZM237.5 1C368.115 1 474 106.885 474 237.5H476C476 105.78 369.22 -1 237.5 -1V1Z" fill="#E9ECEF" mask="url(#path-3-inside-2_33_76)"/>
</svg>